<svg id="Layer_1" data-name="Layer 1" xmlns="http://www.w3.org/2000/svg" viewBox="0 0 70.87 65.31"><defs><style>.cls-1{fill:#fff;}</style></defs><title>Vector Smart Object</title><path class="cls-1" d="M18.66,65.32c-3-1.72-3-1.81-1.28-4.78L29.61,41.18H13.11l-4.47,6c-0.91,1.58-4.85,2.12-6.43,1.21s-1.59-1-.68-2.54l5-11.48V32.66l-5-11.48c-0.91-1.58-.9-1.63.68-2.54s5.52-.37,6.43,1.21l4.42,5.91H29.57L17.38,6.46c-1.72-3-1.69-3.06,1.28-4.78A6.22,6.22,0,0,1,27.16,4l19.13,21.8H59.43c0.16,0,.31,0,0.47,0s0.34-.05.52-0.05c4.26,0,11.36,3.45,11.36,7.71s-7.1,7.71-11.36,7.71c-0.15,0-.29,0-0.44,0s-0.37.06-.56,0.06H46.34L27.16,63A6.22,6.22,0,0,1,18.66,65.32ZM64.22,35.41V31.5a1.93,1.93,0,1,0-3.85,0v3.91A1.93,1.93,0,0,0,64.22,35.41Z" transform="translate(-0.92 -0.85)"/></svg>