<svg id="Calque_1" data-name="Calque 1" xmlns="http://www.w3.org/2000/svg" viewBox="0 0 340.16 114.72"><defs><style>.cls-1{fill:#cfe800;}</style></defs><circle class="cls-1" cx="120.47" cy="14.35" r="14.35"/><polygon class="cls-1" points="137.15 90.13 147.4 90.13 133.67 33.56 107.28 33.56 93.54 90.13 103.79 90.13 103.79 107.07 93.54 107.07 93.54 114.72 115.58 114.72 115.58 90.13 125.37 90.13 125.37 114.72 147.4 114.72 147.4 107.07 137.15 107.07 137.15 90.13"/><path class="cls-1" d="M222.69,16.37A14.35,14.35,0,1,1,208.35,2a14.35,14.35,0,0,1,14.35,14.35" transform="translate(-5.67 -2.02)"/><polygon class="cls-1" points="219.36 107.07 219.36 37.3 186 37.3 186 107.07 175.75 107.07 175.75 114.72 197.78 114.72 197.78 81.67 207.57 81.67 207.57 114.72 229.61 114.72 229.61 107.07 219.36 107.07"/><path class="cls-1" d="M295.59,102.73a7,7,0,1,0,7,7A7,7,0,0,0,295.59,102.73Z" transform="translate(-5.67 -2.02)"/><path class="cls-1" d="M331.61,102.73a7,7,0,1,0,7,7A7,7,0,0,0,331.61,102.73Z" transform="translate(-5.67 -2.02)"/><path class="cls-1" d="M290.8,99.34a3.65,3.65,0,0,1-3.34-2.18l-9.64-21.84-5.64-7.17h-4.91a3.65,3.65,0,0,1,0-7.31H274a3.65,3.65,0,0,1,2.87,1.4l7,8.93a3.66,3.66,0,0,1,.47.78l8.82,20,39.22-1.48,6.34-19.2a3.65,3.65,0,1,1,6.94,2.29L338.5,95.16a3.65,3.65,0,0,1-3.33,2.51l-44.23,1.67H290.8Z" transform="translate(-5.67 -2.02)"/><path class="cls-1" d="M37.4,47.55c0.26,0,.51,0,0.76,0s0.49,0,.75,0H37.4ZM65.68,68.31H53s0-20.05-14.8-20.73c-14.59.68-14.6,20.73-14.6,20.73H10.86A5.19,5.19,0,0,0,5.67,73.5l3.46,38.05s2.73,5.19,5.19,5.19h47.9c2.46,0,5.19-5.19,5.19-5.19L70.87,73.5A5.19,5.19,0,0,0,65.68,68.31ZM37.4,52.74h1.73c1.73,0,8.65,0,8.65,15.57h-19C28.76,52.74,35.67,52.74,37.4,52.74Zm24.81,53.62s-5.06,5.19-7.52,5.19H21.84c-2.46,0-7.52-5.19-7.52-5.19L10.86,78.69A5.19,5.19,0,0,1,16,73.5H60.49a5.19,5.19,0,0,1,5.19,5.19ZM47.78,77a3.46,3.46,0,1,0,3.46,3.46A3.46,3.46,0,0,0,47.78,77Zm-19,0a3.46,3.46,0,1,0,3.46,3.46A3.46,3.46,0,0,0,28.76,77Z" transform="translate(-5.67 -2.02)"/></svg>