<svg id="Layer_1" data-name="Layer 1" xmlns="http://www.w3.org/2000/svg" viewBox="0 0 59.53 70.25"><defs><style>.cls-1{fill:#fff;}</style></defs><title>icon-desc</title><path class="cls-1" d="M60.38,24.7a2.41,2.41,0,0,0-.28-1.46,51.5,51.5,0,0,0-4.42-6.73l-0.12-.19v0A47.25,47.25,0,0,0,40.8,3.81,21.53,21.53,0,0,0,35.72,1H3.3A2.42,2.42,0,0,0,.88,3.46V68.88A2.42,2.42,0,0,0,3.3,71.29H58a2.42,2.42,0,0,0,2.42-2.42V24.75Zm-4.81.35v0.23C50,22.05,43,22.07,39.2,22.42,38.74,16.5,35.82,10,33.75,6,36.29,6.81,47.8,11.35,55.57,25.05ZM5.71,66.46V5.87h22.5C30.59,10,34.9,18.94,34.39,25a2.42,2.42,0,0,0,2.88,2.57c0.12,0,12.26-2.33,18.31,3.74V66.46H5.71Z" transform="translate(-0.88 -1.04)"/><path class="cls-1" d="M47.83,36.39H13.46a2.42,2.42,0,0,0,0,4.83H47.83A2.42,2.42,0,1,0,47.83,36.39Z" transform="translate(-0.88 -1.04)"/><path class="cls-1" d="M47.83,45.67H13.46a2.42,2.42,0,0,0,0,4.84H47.83A2.42,2.42,0,1,0,47.83,45.67Z" transform="translate(-0.88 -1.04)"/><path class="cls-1" d="M47.83,54.83H13.46a2.42,2.42,0,0,0,0,4.84H47.83A2.42,2.42,0,1,0,47.83,54.83Z" transform="translate(-0.88 -1.04)"/><path class="cls-1" d="M12.7,27.63H24.34a1.81,1.81,0,0,0,1.81-1.81V13.13a1.81,1.81,0,0,0-1.81-1.81H12.7a1.81,1.81,0,0,0-1.81,1.81V25.82A1.81,1.81,0,0,0,12.7,27.63Z" transform="translate(-0.88 -1.04)"/></svg>